{
  "title": "Divergent 2014 NEW 720p HDCAM V2 x264 Pimp4003",
  "uid": 9842930,
  "size": 2294953108,
  "categoryP": "video",
  "categoryS": "movies",
  "magnet": "?xt=urn:btih:84505114e7d4f9557404e2b4f4ec655f8a986df4&amp;dn=Divergent+2014+NEW+720p+HDCAM+V2+x264+Pimp4003&amp;tr=udp%3A%2F%2Ftracker.openbittorrent.com%3A80&amp;tr=udp%3A%2F%2Fopen.demonii.com%3A1337&amp;tr=udp%3A%2F%2Ftracker.coppersurfer.tk%3A6969&amp;tr=udp%3A%2F%2Fexodus.desync.com%3A6969",
  "seeders": 85,
  "leechers": 1,
  "uploader": "shawnmurthy",
  "files": -1,
  "time": 1396021240,
  "description": "SOURCE IS EVIL-DEAD\n\nSCREENSHOTS\n &lt;a href=&quot;\nhttp://pimp4003.net/torrents.php?id=84505114e7d4f9557404e2b4f4ec655f8a986df4&quot; rel=&quot;nofollow&quot; target=&quot;_NEW&quot;&gt;\nhttp://pimp4003.net/torrents.php?id=84505114e7d4f9557404e2b4f4ec655f8a986df4&lt;/a&gt;\n\nPIMP4003 AND PIMPRG PRESENTS\n\nDivergent 2014 NEW 720p HDCAM V2 x264 Pimp4003\n &lt;a href=&quot;\nhttp://www.imdb.com/title/tt1840309/&quot; rel=&quot;nofollow&quot; target=&quot;_NEW&quot;&gt;\nhttp://www.imdb.com/title/tt1840309/&lt;/a&gt;\n\nIn a world divided by factions based on virtues, Tris learns she's Divergent and won't fit in. When she discovers a plot to destroy Divergents, Tris and the mysterious Four must find out what makes Divergents dangerous before it's too late.\n\nDirector: Neil Burger\nWriters: Evan Daugherty (screenplay), Vanessa Taylor (screenplay), 1 more credit Â»\nStars: Shailene Woodley, Theo James, Kate Winslet | See full cast and crew Â»\n\nVideo\nID : 1\nFormat : AVC\nFormat/Info : Advanced Video Codec\nFormat profile : &lt;a class=&quot;__cf_email__&quot; href=&quot;/cdn-cgi/l/email-protection&quot; data-cfemail=&quot;7038191718303c435e41&quot;&gt;[email&amp;#160;protected]&lt;/a&gt;&lt;script cf-hash='f9e31' type=&quot;text/javascript&quot;&gt;\n/* &lt;![CDATA[ */!function(){try{var t=&quot;currentScript&quot;in document?document.currentScript:function(){for(var t=document.getElementsByTagName(&quot;script&quot;),e=t.length;e--;)if(t[e].getAttribute(&quot;cf-hash&quot;))return t[e]}();if(t&amp;&amp;t.previousSibling){var e,r,n,i,c=t.previousSibling,a=c.getAttribute(&quot;data-cfemail&quot;);if(a){for(e=&quot;&quot;,r=parseInt(a.substr(0,2),16),n=2;a.length-n;n+=2)i=parseInt(a.substr(n,2),16)^r,e+=String.fromCharCode(i);e=document.createTextNode(e),c.parentNode.replaceChild(e,c)}}}catch(u){}}();/* ]]&gt; */&lt;/script&gt;\nFormat settings, CABAC : Yes\nFormat settings, ReFrames : 5 frames\nFormat settings, GOP : M=4, N=13\nCodec ID : avc1\nCodec ID/Info : Advanced Video Coding\nDuration : 2h 11mn\nBit rate : 2 144 Kbps\nWidth : 1 280 pixels\nHeight : 540 pixels\nDisplay aspect ratio : 2.40:1\nFrame rate mode : Constant\nFrame rate : 23.976 fps\nColor space : YUV\nChroma subsampling : 4:2:0\nBit depth : 8 bits\nScan type : Progressive\nBits/(Pixel*Frame) : 0.129\nStream size : 1.98 GiB (93%)\nWriting library : x264 core 110\nEncoding settings : cabac=1 / ref=5 / deblock=1:0:0 / analyse=0x3:0x133 / me=hex / subme=8 / psy=1 / psy_rd=1.00:0.00 / mixed_ref=1 / me_range=16 / chroma_me=0 / trellis=1 / 8x8dct=1 / cqm=0 / deadzone=21,11 / fast_pskip=1 / chroma_qp_offset=-2 / threads=8 / sliced_threads=0 / nr=0 / decimate=1 / interlaced=0 / constrained_intra=0 / bframes=3 / b_pyramid=0 / b_adapt=0 / b_bias=0 / direct=3 / weightb=1 / open_gop=0 / weightp=0 / keyint=13 / keyint_min=7 / scenecut=0 / intra_refresh=0 / rc_lookahead=13 / rc=abr / mbtree=1 / bitrate=2144 / ratetol=1.0 / qcomp=0.00 / qpmin=10 / qpmax=51 / qpstep=4 / ip_ratio=1.41 / aq=1:1.00\n\nAudio\nID : 2\nFormat : AAC\nFormat/Info : Advanced Audio Codec\nFormat profile : LC\nCodec ID : 40\nDuration : 2h 11mn\nBit rate mode : Variable\nBit rate : 165 Kbps\nChannel(s) : 2 channels\nChannel positions : Front: L R\nSampling rate : 48.0 KHz\nCompression mode : Lossy\nStream size : 156 MiB (7%)",
  "parsed": {
    "xt": "urn:btih:84505114e7d4f9557404e2b4f4ec655f8a986df4",
    "dn": "Divergent 2014 NEW 720p HDCAM V2 x264 Pimp4003",
    "tr": [
      "udp://exodus.desync.com:6969",
      "udp://open.demonii.com:1337",
      "udp://tracker.coppersurfer.tk:6969",
      "udp://tracker.openbittorrent.com:80"
    ],
    "infoHash": "84505114e7d4f9557404e2b4f4ec655f8a986df4",
    "infoHashBuffer": {
      "type": "Buffer",
      "data": [
        132,
        80,
        81,
        20,
        231,
        212,
        249,
        85,
        116,
        4,
        226,
        180,
        244,
        236,
        101,
        95,
        138,
        152,
        109,
        244
      ]
    },
    "name": "Divergent 2014 NEW 720p HDCAM V2 x264 Pimp4003",
    "announce": [
      "udp://exodus.desync.com:6969",
      "udp://open.demonii.com:1337",
      "udp://tracker.coppersurfer.tk:6969",
      "udp://tracker.openbittorrent.com:80"
    ],
    "urlList": []
  },
  "previous": 86,
  "peers": 1,
  "last_updated": "2016-12-25T06:29:35.392Z"
}